<svg width="21" height="21" viewBox="0 0 21 21" fill="none" xmlns="http://www.w3.org/2000/svg">
<path d="M1.25647 6.978H5.41458V20.3312H1.25647V6.978ZM3.33246 0.332033C4.65903 0.332033 5.73726 1.41025 5.73726 2.73682C5.73726 4.0634 4.65903 5.14424 3.33334 5.14424C2.6952 5.14285 2.08358 4.8888 1.63226 4.43765C1.18094 3.98649 0.926666 3.37497 0.925049 2.73682C0.925049 2.4208 0.987337 2.10788 1.10835 1.81594C1.22937 1.52401 1.40674 1.25879 1.63032 1.03545C1.85391 0.812112 2.11932 0.635031 2.41138 0.514333C2.70345 0.393636 3.01644 0.331688 3.33246 0.332033ZM8.01088 6.978H11.9915V8.80302H12.0466C12.601 7.75366 13.9546 6.64658 15.9817 6.64658C20.1844 6.64658 20.96 9.41253 20.96 13.0075V20.332H16.8124V13.8365C16.8124 12.2887 16.7844 10.2949 14.656 10.2949C12.496 10.2949 12.1637 11.9826 12.1637 13.7228V20.3285H8.017V6.97538L8.01088 6.978Z" fill="#447A88"/>
</svg>
